<svg width="2466" height="723" viewBox="0 0 2466 723" fill="none" xmlns="http://www.w3.org/2000/svg">
<path d="M0 561.71V0H67.41V249.56H330.61V0H398.01V561.72H330.61V310.56H67.41V561.72H0V561.71Z" fill="black"/>
<path d="M648.369 572.95C608.779 572.95 574.009 564.52 544.049 547.68C514.079 530.83 490.809 507.16 474.239 476.65C457.649 446.16 449.359 410.85 449.359 370.73V361.1C449.359 320.46 457.649 284.87 474.239 254.38C490.809 223.89 513.819 200.21 543.249 183.37C572.659 166.52 606.369 158.08 644.359 158.08C681.269 158.08 713.889 165.98 742.259 181.75C770.609 197.54 792.809 220.14 808.859 249.56C824.909 278.99 832.929 313.5 832.929 353.08V381.97H512.759C514.369 424.24 528.009 457.27 553.679 481.07C579.359 504.88 611.459 516.78 649.979 516.78C683.679 516.78 709.619 509.03 727.819 493.51C745.999 478 759.919 459.55 769.539 438.15L824.109 464.62C816.079 481.21 804.979 497.8 790.809 514.38C776.629 530.96 758.179 544.87 735.439 556.1C712.689 567.33 683.679 572.95 648.369 572.95ZM513.559 329.8H768.739C766.599 293.42 754.149 265.08 731.429 244.74C708.679 224.41 679.669 214.25 644.359 214.25C608.509 214.25 579.089 224.41 556.089 244.74C533.079 265.08 518.899 293.42 513.559 329.8Z" fill="black"/>
<path d="M883.49 561.71V169.31H946.88V561.71H883.49ZM961.43 94.0801C961.43 120.39 940.72 141.72 915.18 141.72C889.64 141.72 868.93 120.39 868.93 94.0801C868.93 57.7401 915.18 27.0601 915.18 27.0601C915.18 27.0601 961.43 58.0701 961.43 94.0801Z" fill="black"/>
<path d="M1019.9 561.71V169.31H1081.69V218.27H1092.93C1100.42 204.36 1112.72 191.53 1129.84 179.75C1146.96 167.99 1171.03 162.1 1202.06 162.1C1232.56 162.1 1257.29 168.79 1276.29 182.16C1295.27 195.54 1309.05 211.86 1317.61 231.12H1328.84C1337.93 211.87 1351.71 195.54 1370.16 182.16C1388.62 168.79 1414.42 162.1 1447.6 162.1C1473.8 162.1 1496.81 167.45 1516.61 178.15C1536.39 188.86 1552.04 204.22 1563.55 224.29C1575.05 244.35 1580.8 268.3 1580.8 296.1V561.71H1517.41V301.71C1517.41 275.51 1509.78 254.77 1494.54 239.52C1479.3 224.28 1458.03 216.65 1430.75 216.65C1401.86 216.65 1378.19 226.03 1359.74 244.74C1341.28 263.48 1332.05 290.48 1332.05 325.79V561.71H1268.66V301.71C1268.66 275.51 1261.03 254.77 1245.79 239.52C1230.55 224.28 1209.28 216.65 1182 216.65C1153.11 216.65 1129.44 226.03 1110.99 244.74C1092.53 263.48 1083.3 290.48 1083.3 325.79V561.71H1019.9Z" fill="black"/>
<path d="M1867.28 572.95C1826.62 572.95 1794.92 565.19 1772.19 549.68C1749.45 534.17 1733 516.52 1722.84 496.72H1711.6V561.72H1649.81V0H1713.2V231.1H1724.44C1730.86 218.79 1739.95 207.16 1751.72 196.19C1763.48 185.23 1778.86 176.12 1797.86 168.9C1816.84 161.68 1839.99 158.07 1867.27 158.07C1901.5 158.07 1932.67 166.23 1960.76 182.54C1988.84 198.88 2011.18 222.15 2027.76 252.37C2044.33 282.59 2052.63 318.57 2052.63 360.29V370.72C2052.63 412.44 2044.2 448.55 2027.36 479.05C2010.51 509.54 1988.04 532.81 1959.95 548.86C1931.88 564.93 1900.99 572.95 1867.28 572.95ZM1850.43 516.77C1891.08 516.77 1924.12 503.8 1949.54 477.86C1974.94 451.92 1987.66 415.67 1987.66 369.13V361.9C1987.66 315.36 1974.95 279.12 1949.54 253.18C1924.13 227.24 1891.09 214.26 1850.43 214.26C1810.31 214.26 1777.27 227.24 1751.33 253.18C1725.38 279.12 1712.41 315.36 1712.41 361.9V369.13C1712.41 415.67 1725.38 451.92 1751.33 477.86C1777.27 503.8 1810.31 516.77 1850.43 516.77Z" fill="black"/>
<path d="M2153.75 722.2V666.02H2378.44C2393.95 666.02 2401.71 658 2401.71 641.95V499.11H2390.47C2385.12 510.35 2376.96 521.45 2366 532.41C2355.03 543.37 2340.72 552.21 2323.07 558.9C2305.42 565.58 2283.21 568.92 2256.47 568.92C2228.1 568.92 2202.02 562.77 2178.23 550.47C2154.42 538.18 2135.7 519.98 2122.05 495.91C2108.41 471.83 2101.59 442.42 2101.59 407.63V169.3H2164.98V402.82C2164.98 441.33 2174.74 469.42 2194.27 487.07C2213.8 504.72 2240.14 513.56 2273.32 513.56C2310.76 513.56 2341.52 501.25 2365.6 476.64C2389.67 452.04 2401.71 415.39 2401.71 366.7V169.3H2465.1V653.18C2465.1 674.57 2459.08 691.42 2447.05 703.74C2435.01 716.03 2417.48 722.19 2394.49 722.19H2153.75V722.2Z" fill="black"/>
</svg>
